<svg width="497" height="219" viewBox="0 0 497 219" fill="none" xmlns="http://www.w3.org/2000/svg">
<path fill-rule="evenodd" clip-rule="evenodd" d="M9.26699 10.4362C3.93152 10.7646 -0.173603 15.2795 0.00565324 20.6221L6.10633 202.447C6.27884 207.589 10.3705 211.736 15.5093 211.979L163.364 218.948C168.994 219.214 173.703 214.721 173.703 209.086V10.8148C173.703 5.12324 168.903 0.610289 163.223 0.95995L9.26699 10.4362ZM129.468 3.09568L129.145 27.841C129.138 28.379 129.745 28.6977 130.184 28.3867L139.763 21.6035C139.991 21.4422 140.296 21.4421 140.524 21.6033L148.87 27.5065C149.306 27.8149 149.908 27.5031 149.908 26.9691V1.805L129.468 3.09568Z" fill="#79F2C0"/>
<path d="M58.8673 108.8L86.2674 145H62.5674L40.2674 113.7V145H20.5674V74.2002H40.2674V104.8L62.7673 74.2002H86.2674L58.8673 108.8Z" fill="white"/>
<path d="M111.935 74.2002V114.6C111.935 118.6 112.802 121.7 114.535 123.9C116.335 126.034 119.035 127.1 122.635 127.1C126.235 127.1 128.935 126 130.735 123.8C132.602 121.6 133.535 118.534 133.535 114.6V74.2002H153.135V114.6C153.135 121.267 151.769 126.934 149.035 131.6C146.369 136.267 142.702 139.8 138.035 142.2C133.369 144.534 128.102 145.7 122.235 145.7C116.369 145.7 111.169 144.534 106.635 142.2C102.169 139.867 98.6687 136.367 96.1353 131.7C93.602 127.034 92.3353 121.334 92.3353 114.6V74.2002H111.935Z" fill="white"/>
<path d="M258.344 107.95C262.244 108.79 265.394 110.65 267.794 113.53C270.254 116.41 271.484 119.8 271.484 123.7C271.484 128.86 269.714 133 266.174 136.12C262.694 139.24 257.624 140.8 250.964 140.8H227.384V77.3502H250.604C256.964 77.3502 261.794 78.7602 265.094 81.5802C268.394 84.4002 270.044 88.2702 270.044 93.1902C270.044 97.2702 268.934 100.57 266.714 103.09C264.554 105.61 261.764 107.23 258.344 107.95ZM235.574 105.16H249.254C253.274 105.16 256.334 104.23 258.434 102.37C260.594 100.51 261.674 97.9002 261.674 94.5402C261.674 91.3002 260.624 88.7502 258.524 86.8902C256.424 85.0302 253.214 84.1002 248.894 84.1002H235.574V105.16ZM249.434 133.96C253.754 133.96 257.084 132.97 259.424 130.99C261.824 129.01 263.024 126.22 263.024 122.62C263.024 119.08 261.794 116.32 259.334 114.34C256.934 112.3 253.574 111.28 249.254 111.28H235.574V133.96H249.434Z" fill="#333333"/>
<path d="M289.891 74.2002V140.8H281.701V74.2002H289.891Z" fill="#333333"/>
<path d="M325.468 90.7602C330.208 90.7602 334.438 91.7802 338.158 93.8202C341.938 95.8602 344.878 98.8002 346.978 102.64C349.138 106.48 350.218 110.98 350.218 116.14C350.218 121.3 349.138 125.8 346.978 129.64C344.878 133.42 341.938 136.33 338.158 138.37C334.438 140.41 330.208 141.43 325.468 141.43C320.728 141.43 316.468 140.41 312.688 138.37C308.968 136.33 306.028 133.42 303.868 129.64C301.708 125.8 300.628 121.3 300.628 116.14C300.628 110.98 301.708 106.48 303.868 102.64C306.028 98.8002 308.968 95.8602 312.688 93.8202C316.468 91.7802 320.728 90.7602 325.468 90.7602ZM325.468 97.9602C322.528 97.9602 319.798 98.6202 317.278 99.9402C314.818 101.26 312.808 103.3 311.248 106.06C309.748 108.76 308.998 112.12 308.998 116.14C308.998 120.1 309.748 123.46 311.248 126.22C312.808 128.92 314.818 130.93 317.278 132.25C319.798 133.57 322.528 134.23 325.468 134.23C328.408 134.23 331.108 133.57 333.568 132.25C336.088 130.93 338.098 128.92 339.598 126.22C341.158 123.46 341.938 120.1 341.938 116.14C341.938 112.12 341.158 108.76 339.598 106.06C338.098 103.3 336.088 101.26 333.568 99.9402C331.108 98.6202 328.408 97.9602 325.468 97.9602Z" fill="#333333"/>
<path d="M382.76 90.7602C389.06 90.7602 394.28 92.4402 398.42 95.8002C402.56 99.1602 405.11 103.66 406.07 109.3H397.43C396.83 105.76 395.18 103 392.48 101.02C389.84 98.9802 386.54 97.9602 382.58 97.9602C379.7 97.9602 377.06 98.6202 374.66 99.9402C372.32 101.26 370.43 103.3 368.99 106.06C367.55 108.76 366.83 112.12 366.83 116.14C366.83 120.16 367.55 123.55 368.99 126.31C370.43 129.01 372.32 131.02 374.66 132.34C377.06 133.66 379.7 134.32 382.58 134.32C386.54 134.32 389.84 133.3 392.48 131.26C395.18 129.22 396.83 126.43 397.43 122.89H406.07C405.11 128.59 402.56 133.12 398.42 136.48C394.28 139.78 389.06 141.43 382.76 141.43C378.02 141.43 373.82 140.41 370.16 138.37C366.5 136.33 363.62 133.42 361.52 129.64C359.48 125.8 358.46 121.3 358.46 116.14C358.46 110.98 359.48 106.48 361.52 102.64C363.62 98.8002 366.5 95.8602 370.16 93.8202C373.82 91.7802 378.02 90.7602 382.76 90.7602Z" fill="#333333"/>
<path d="M443.879 140.8L424.979 118.57V140.8H416.789V74.2002H424.979V112.9L443.609 91.3902H453.599L431.459 115.96L454.139 140.8H443.879Z" fill="#333333"/>
<path d="M476.829 90.7602C482.409 90.7602 486.879 92.2302 490.239 95.1702C493.659 98.0502 495.729 101.95 496.449 106.87H488.619C488.259 103.93 487.029 101.53 484.929 99.6702C482.889 97.7502 480.129 96.7902 476.649 96.7902C473.709 96.7902 471.399 97.5102 469.719 98.9502C468.099 100.33 467.289 102.22 467.289 104.62C467.289 106.42 467.829 107.89 468.909 109.03C470.049 110.11 471.429 110.95 473.049 111.55C474.729 112.09 477.009 112.69 479.889 113.35C483.549 114.19 486.489 115.06 488.709 115.96C490.989 116.8 492.909 118.18 494.469 120.1C496.089 122.02 496.899 124.6 496.899 127.84C496.899 131.86 495.369 135.13 492.309 137.65C489.309 140.17 485.289 141.43 480.249 141.43C474.369 141.43 469.569 140.02 465.849 137.2C462.129 134.38 459.939 130.45 459.279 125.41H467.199C467.499 128.41 468.789 130.84 471.069 132.7C473.409 134.56 476.469 135.49 480.249 135.49C483.069 135.49 485.259 134.77 486.819 133.33C488.439 131.89 489.249 130 489.249 127.66C489.249 125.74 488.679 124.21 487.539 123.07C486.399 121.93 484.989 121.06 483.309 120.46C481.629 119.86 479.319 119.23 476.379 118.57C472.719 117.73 469.779 116.89 467.559 116.05C465.399 115.21 463.539 113.89 461.979 112.09C460.479 110.23 459.729 107.74 459.729 104.62C459.729 100.48 461.259 97.1502 464.319 94.6302C467.379 92.0502 471.549 90.7602 476.829 90.7602Z" fill="#333333"/>
</svg>
