<svg width="493" height="184" viewBox="0 0 493 184" fill="none" xmlns="http://www.w3.org/2000/svg">
<path d="M0 24C0 10.7452 10.7452 0 24 0H160C173.255 0 184 10.7452 184 24V160C184 173.255 173.255 184 160 184H24C10.7452 184 0 173.255 0 160V24Z" fill="#04D6A3"/>
<path d="M64.2156 90.8L91.6156 127H67.9156L45.6156 95.7V127H25.9156V56.2H45.6156V86.8L68.1156 56.2H91.6156L64.2156 90.8Z" fill="white"/>
<path d="M117.284 56.2V96.6C117.284 100.6 118.15 103.7 119.884 105.9C121.684 108.033 124.384 109.1 127.984 109.1C131.584 109.1 134.284 108 136.084 105.8C137.95 103.6 138.884 100.533 138.884 96.6V56.2H158.484V96.6C158.484 103.267 157.117 108.933 154.384 113.6C151.717 118.267 148.05 121.8 143.384 124.2C138.717 126.533 133.45 127.7 127.584 127.7C121.717 127.7 116.517 126.533 111.984 124.2C107.517 121.867 104.017 118.367 101.484 113.7C98.9503 109.033 97.6836 103.333 97.6836 96.6V56.2H117.284Z" fill="white"/>
<path d="M253.53 92.135C257.43 92.975 260.58 94.835 262.98 97.715C265.44 100.595 266.67 103.985 266.67 107.885C266.67 113.045 264.9 117.185 261.36 120.305C257.88 123.425 252.81 124.985 246.15 124.985H222.57V61.535H245.79C252.15 61.535 256.98 62.945 260.28 65.765C263.58 68.585 265.23 72.455 265.23 77.375C265.23 81.455 264.12 84.755 261.9 87.275C259.74 89.795 256.95 91.415 253.53 92.135ZM230.76 89.345H244.44C248.46 89.345 251.52 88.415 253.62 86.555C255.78 84.695 256.86 82.085 256.86 78.725C256.86 75.485 255.81 72.935 253.71 71.075C251.61 69.215 248.4 68.285 244.08 68.285H230.76V89.345ZM244.62 118.145C248.94 118.145 252.27 117.155 254.61 115.175C257.01 113.195 258.21 110.405 258.21 106.805C258.21 103.265 256.98 100.505 254.52 98.525C252.12 96.485 248.76 95.465 244.44 95.465H230.76V118.145H244.62Z" fill="#333333"/>
<path d="M285.076 58.385V124.985H276.886V58.385H285.076Z" fill="#333333"/>
<path d="M320.654 74.945C325.394 74.945 329.624 75.965 333.344 78.005C337.124 80.045 340.064 82.985 342.164 86.825C344.324 90.665 345.404 95.165 345.404 100.325C345.404 105.485 344.324 109.985 342.164 113.825C340.064 117.605 337.124 120.515 333.344 122.555C329.624 124.595 325.394 125.615 320.654 125.615C315.914 125.615 311.654 124.595 307.874 122.555C304.154 120.515 301.214 117.605 299.054 113.825C296.894 109.985 295.814 105.485 295.814 100.325C295.814 95.165 296.894 90.665 299.054 86.825C301.214 82.985 304.154 80.045 307.874 78.005C311.654 75.965 315.914 74.945 320.654 74.945ZM320.654 82.145C317.714 82.145 314.984 82.805 312.464 84.125C310.004 85.445 307.994 87.485 306.434 90.245C304.934 92.945 304.184 96.305 304.184 100.325C304.184 104.285 304.934 107.645 306.434 110.405C307.994 113.105 310.004 115.115 312.464 116.435C314.984 117.755 317.714 118.415 320.654 118.415C323.594 118.415 326.294 117.755 328.754 116.435C331.274 115.115 333.284 113.105 334.784 110.405C336.344 107.645 337.124 104.285 337.124 100.325C337.124 96.305 336.344 92.945 334.784 90.245C333.284 87.485 331.274 85.445 328.754 84.125C326.294 82.805 323.594 82.145 320.654 82.145Z" fill="#333333"/>
<path d="M377.946 74.945C384.246 74.945 389.466 76.625 393.606 79.985C397.746 83.345 400.296 87.845 401.256 93.485H392.616C392.016 89.945 390.366 87.185 387.666 85.205C385.026 83.165 381.726 82.145 377.766 82.145C374.886 82.145 372.246 82.805 369.846 84.125C367.506 85.445 365.616 87.485 364.176 90.245C362.736 92.945 362.016 96.305 362.016 100.325C362.016 104.345 362.736 107.735 364.176 110.495C365.616 113.195 367.506 115.205 369.846 116.525C372.246 117.845 374.886 118.505 377.766 118.505C381.726 118.505 385.026 117.485 387.666 115.445C390.366 113.405 392.016 110.615 392.616 107.075H401.256C400.296 112.775 397.746 117.305 393.606 120.665C389.466 123.965 384.246 125.615 377.946 125.615C373.206 125.615 369.006 124.595 365.346 122.555C361.686 120.515 358.806 117.605 356.706 113.825C354.666 109.985 353.646 105.485 353.646 100.325C353.646 95.165 354.666 90.665 356.706 86.825C358.806 82.985 361.686 80.045 365.346 78.005C369.006 75.965 373.206 74.945 377.946 74.945Z" fill="#333333"/>
<path d="M439.064 124.985L420.164 102.755V124.985H411.974V58.385H420.164V97.085L438.794 75.575H448.784L426.644 100.145L449.324 124.985H439.064Z" fill="#333333"/>
<path d="M472.015 74.945C477.595 74.945 482.065 76.415 485.425 79.355C488.845 82.235 490.915 86.135 491.635 91.055H483.805C483.445 88.115 482.215 85.715 480.115 83.855C478.075 81.935 475.315 80.975 471.835 80.975C468.895 80.975 466.585 81.695 464.905 83.135C463.285 84.515 462.475 86.405 462.475 88.805C462.475 90.605 463.015 92.075 464.095 93.215C465.235 94.295 466.615 95.135 468.235 95.735C469.915 96.275 472.195 96.875 475.075 97.535C478.735 98.375 481.675 99.245 483.895 100.145C486.175 100.985 488.095 102.365 489.655 104.285C491.275 106.205 492.085 108.785 492.085 112.025C492.085 116.045 490.555 119.315 487.495 121.835C484.495 124.355 480.475 125.615 475.435 125.615C469.555 125.615 464.755 124.205 461.035 121.385C457.315 118.565 455.125 114.635 454.465 109.595H462.385C462.685 112.595 463.975 115.025 466.255 116.885C468.595 118.745 471.655 119.675 475.435 119.675C478.255 119.675 480.445 118.955 482.005 117.515C483.625 116.075 484.435 114.185 484.435 111.845C484.435 109.925 483.865 108.395 482.725 107.255C481.585 106.115 480.175 105.245 478.495 104.645C476.815 104.045 474.505 103.415 471.565 102.755C467.905 101.915 464.965 101.075 462.745 100.235C460.585 99.395 458.725 98.075 457.165 96.275C455.665 94.415 454.915 91.925 454.915 88.805C454.915 84.665 456.445 81.335 459.505 78.815C462.565 76.235 466.735 74.945 472.015 74.945Z" fill="#333333"/>
</svg>
