<svg width="524" height="184" viewBox="0 0 524 184" fill="none" xmlns="http://www.w3.org/2000/svg">
<path d="M0 24C0 10.7452 10.7452 0 24 0H160C173.255 0 184 10.7452 184 24V160C184 173.255 173.255 184 160 184H24C10.7452 184 0 173.255 0 160V24Z" fill="#0497D6"/>
<path d="M64.2156 90.8L91.6156 127H67.9156L45.6156 95.7V127H25.9156V56.2H45.6156V86.8L68.1156 56.2H91.6156L64.2156 90.8Z" fill="white"/>
<path d="M117.284 56.2V96.6C117.284 100.6 118.15 103.7 119.884 105.9C121.684 108.033 124.384 109.1 127.984 109.1C131.584 109.1 134.284 108 136.084 105.8C137.95 103.6 138.884 100.533 138.884 96.6V56.2H158.484V96.6C158.484 103.267 157.117 108.933 154.384 113.6C151.717 118.267 148.05 121.8 143.384 124.2C138.717 126.533 133.45 127.7 127.584 127.7C121.717 127.7 116.517 126.533 111.984 124.2C107.517 121.867 104.017 118.367 101.484 113.7C98.9503 109.033 97.6836 103.333 97.6836 96.6V56.2H117.284Z" fill="white"/>
<path d="M237.33 116.81H259.83V123.2H229.14V59.75H237.33V116.81Z" fill="#333333"/>
<path d="M266.723 59.3C266.723 57.8 267.233 56.6 268.253 55.7C269.273 54.74 270.623 54.26 272.303 54.26C273.983 54.26 275.333 54.74 276.353 55.7C277.373 56.6 277.883 57.8 277.883 59.3C277.883 60.8 277.373 62.03 276.353 62.99C275.333 63.89 273.983 64.34 272.303 64.34C270.623 64.34 269.273 63.89 268.253 62.99C267.233 62.03 266.723 60.8 266.723 59.3ZM276.353 73.79V123.2H268.163V73.79H276.353Z" fill="#333333"/>
<path d="M316.791 73.16C321.171 73.16 325.071 74.18 328.491 76.22C331.911 78.26 334.581 81.2 336.501 85.04C338.481 88.88 339.471 93.38 339.471 98.54C339.471 103.7 338.481 108.2 336.501 112.04C334.581 115.82 331.911 118.73 328.491 120.77C325.071 122.81 321.171 123.83 316.791 123.83C311.991 123.83 307.911 122.63 304.551 120.23C301.251 117.77 298.971 114.56 297.711 110.6V123.2H289.521V56.6H297.711V86.39C298.971 82.43 301.251 79.25 304.551 76.85C307.911 74.39 311.991 73.16 316.791 73.16ZM314.451 80.45C311.271 80.45 308.391 81.2 305.811 82.7C303.231 84.14 301.221 86.24 299.781 89C298.341 91.76 297.621 94.94 297.621 98.54C297.621 102.14 298.341 105.32 299.781 108.08C301.221 110.78 303.231 112.88 305.811 114.38C308.391 115.88 311.271 116.63 314.451 116.63C319.551 116.63 323.601 115.04 326.601 111.86C329.661 108.62 331.191 104.18 331.191 98.54C331.191 92.9 329.661 88.49 326.601 85.31C323.601 82.07 319.551 80.45 314.451 80.45Z" fill="#333333"/>
<path d="M358.355 83.78C359.975 80.36 362.345 77.72 365.465 75.86C368.585 73.94 372.305 72.98 376.625 72.98V81.89H374.105C369.485 81.89 365.705 83.09 362.765 85.49C359.825 87.83 358.355 91.73 358.355 97.19V123.2H350.165V73.79H358.355V83.78Z" fill="#333333"/>
<path d="M404.956 73.16C409.756 73.16 413.806 74.36 417.106 76.76C420.466 79.16 422.806 82.37 424.126 86.39V73.79H432.316V123.2H424.126V110.6C422.806 114.62 420.466 117.83 417.106 120.23C413.806 122.63 409.756 123.83 404.956 123.83C400.576 123.83 396.676 122.81 393.256 120.77C389.836 118.73 387.136 115.82 385.156 112.04C383.236 108.2 382.276 103.7 382.276 98.54C382.276 93.38 383.236 88.88 385.156 85.04C387.136 81.2 389.836 78.26 393.256 76.22C396.676 74.18 400.576 73.16 404.956 73.16ZM407.296 80.45C402.256 80.45 398.206 82.07 395.146 85.31C392.146 88.49 390.646 92.9 390.646 98.54C390.646 104.18 392.146 108.62 395.146 111.86C398.206 115.04 402.256 116.63 407.296 116.63C410.536 116.63 413.416 115.88 415.936 114.38C418.516 112.88 420.526 110.78 421.966 108.08C423.406 105.32 424.126 102.14 424.126 98.54C424.126 94.94 423.406 91.76 421.966 89C420.526 86.24 418.516 84.14 415.936 82.7C413.416 81.2 410.536 80.45 407.296 80.45Z" fill="#333333"/>
<path d="M453.541 83.78C455.161 80.36 457.531 77.72 460.651 75.86C463.771 73.94 467.491 72.98 471.811 72.98V81.89H469.291C464.671 81.89 460.891 83.09 457.951 85.49C455.011 87.83 453.541 91.73 453.541 97.19V123.2H445.351V73.79H453.541V83.78Z" fill="#333333"/>
<path d="M483.312 73.79L499.332 112.67L514.182 73.79H523.272L493.932 146.6H484.662L494.922 122.39L474.132 73.79H483.312Z" fill="#333333"/>
</svg>
