<svg width="522" height="215" viewBox="0 0 522 215" fill="none" xmlns="http://www.w3.org/2000/svg">
<path fill-rule="evenodd" clip-rule="evenodd" d="M9.07966 9.75936C3.85205 10.0811 -0.170093 14.5048 0.00553896 19.7394L5.98289 197.889C6.15192 202.927 10.1609 206.99 15.1958 207.228L160.062 214.056C165.577 214.316 170.191 209.915 170.191 204.393V10.1303C170.191 4.55383 165.489 0.132115 159.923 0.474708L9.07966 9.75936ZM126.851 2.56726L126.535 26.8123C126.528 27.3395 127.122 27.6517 127.552 27.347L136.938 20.7009C137.161 20.5429 137.46 20.5428 137.683 20.7007L145.86 26.4847C146.288 26.7868 146.878 26.4813 146.878 25.9581V1.30267L126.851 2.56726Z" fill="#4C9AFF"/>
<path d="M57.1117 106.112L84.5117 142.312H60.8117L38.5117 111.012V142.312H18.8117V71.5117H38.5117V102.112L61.0117 71.5117H84.5117L57.1117 106.112Z" fill="white"/>
<path d="M110.18 71.5117V111.912C110.18 115.912 111.046 119.012 112.78 121.212C114.58 123.345 117.28 124.412 120.88 124.412C124.48 124.412 127.18 123.312 128.98 121.112C130.846 118.912 131.78 115.845 131.78 111.912V71.5117H151.38V111.912C151.38 118.578 150.013 124.245 147.28 128.912C144.613 133.578 140.946 137.112 136.28 139.512C131.613 141.845 126.346 143.012 120.48 143.012C114.613 143.012 109.413 141.845 104.88 139.512C100.413 137.178 96.913 133.678 94.3796 129.012C91.8463 124.345 90.5796 118.645 90.5796 111.912V71.5117H110.18Z" fill="white"/>
<path d="M235.574 123.642H258.074V130.032H227.384V66.5819H235.574V123.642Z" fill="#333333"/>
<path d="M264.968 66.1319C264.968 64.6319 265.478 63.4319 266.498 62.5319C267.518 61.5719 268.868 61.0919 270.548 61.0919C272.228 61.0919 273.578 61.5719 274.598 62.5319C275.618 63.4319 276.128 64.6319 276.128 66.1319C276.128 67.6319 275.618 68.8619 274.598 69.8219C273.578 70.7219 272.228 71.1719 270.548 71.1719C268.868 71.1719 267.518 70.7219 266.498 69.8219C265.478 68.8619 264.968 67.6319 264.968 66.1319ZM274.598 80.6219V130.032H266.408V80.6219H274.598Z" fill="#333333"/>
<path d="M315.035 79.9919C319.415 79.9919 323.315 81.0119 326.735 83.0519C330.155 85.0919 332.825 88.0319 334.745 91.8719C336.725 95.7119 337.715 100.212 337.715 105.372C337.715 110.532 336.725 115.032 334.745 118.872C332.825 122.652 330.155 125.562 326.735 127.602C323.315 129.642 319.415 130.662 315.035 130.662C310.235 130.662 306.155 129.462 302.795 127.062C299.495 124.602 297.215 121.392 295.955 117.432V130.032H287.765V63.4319H295.955V93.2219C297.215 89.2619 299.495 86.0819 302.795 83.6819C306.155 81.2219 310.235 79.9919 315.035 79.9919ZM312.695 87.2819C309.515 87.2819 306.635 88.0319 304.055 89.5319C301.475 90.9719 299.465 93.0719 298.025 95.8319C296.585 98.5919 295.865 101.772 295.865 105.372C295.865 108.972 296.585 112.152 298.025 114.912C299.465 117.612 301.475 119.712 304.055 121.212C306.635 122.712 309.515 123.462 312.695 123.462C317.795 123.462 321.845 121.872 324.845 118.692C327.905 115.452 329.435 111.012 329.435 105.372C329.435 99.7319 327.905 95.3219 324.845 92.1419C321.845 88.9019 317.795 87.2819 312.695 87.2819Z" fill="#333333"/>
<path d="M356.6 90.6119C358.22 87.1919 360.59 84.5519 363.71 82.6919C366.83 80.7719 370.55 79.8119 374.87 79.8119V88.7219H372.35C367.73 88.7219 363.95 89.9219 361.01 92.3219C358.07 94.6619 356.6 98.5619 356.6 104.022V130.032H348.41V80.6219H356.6V90.6119Z" fill="#333333"/>
<path d="M403.201 79.9919C408.001 79.9919 412.051 81.1919 415.351 83.5919C418.711 85.9919 421.051 89.2019 422.371 93.2219V80.6219H430.561V130.032H422.371V117.432C421.051 121.452 418.711 124.662 415.351 127.062C412.051 129.462 408.001 130.662 403.201 130.662C398.821 130.662 394.921 129.642 391.501 127.602C388.081 125.562 385.381 122.652 383.401 118.872C381.481 115.032 380.521 110.532 380.521 105.372C380.521 100.212 381.481 95.7119 383.401 91.8719C385.381 88.0319 388.081 85.0919 391.501 83.0519C394.921 81.0119 398.821 79.9919 403.201 79.9919ZM405.541 87.2819C400.501 87.2819 396.451 88.9019 393.391 92.1419C390.391 95.3219 388.891 99.7319 388.891 105.372C388.891 111.012 390.391 115.452 393.391 118.692C396.451 121.872 400.501 123.462 405.541 123.462C408.781 123.462 411.661 122.712 414.181 121.212C416.761 119.712 418.771 117.612 420.211 114.912C421.651 112.152 422.371 108.972 422.371 105.372C422.371 101.772 421.651 98.5919 420.211 95.8319C418.771 93.0719 416.761 90.9719 414.181 89.5319C411.661 88.0319 408.781 87.2819 405.541 87.2819Z" fill="#333333"/>
<path d="M451.785 90.6119C453.405 87.1919 455.775 84.5519 458.895 82.6919C462.015 80.7719 465.735 79.8119 470.055 79.8119V88.7219H467.535C462.915 88.7219 459.135 89.9219 456.195 92.3219C453.255 94.6619 451.785 98.5619 451.785 104.022V130.032H443.595V80.6219H451.785V90.6119Z" fill="#333333"/>
<path d="M481.556 80.6219L497.576 119.502L512.426 80.6219H521.516L492.176 153.432H482.906L493.166 129.222L472.376 80.6219H481.556Z" fill="#333333"/>
</svg>
